<mxfile host="app.diagrams.net" modified="2023-08-09T06:26:06.328Z" agent="Mozilla/5.0 (Windows NT 10.0; Win64; x64) AppleWebKit/537.36 (KHTML, like Gecko) Chrome/115.0.0.0 Safari/537.36" etag="df6sb3_kQrKW4U-sWko0" version="21.6.6" type="github">
  <diagram name="Seite-1" id="TI220dw4piWWcn35D1VF">
    <mxGraphModel dx="1434" dy="796" grid="1" gridSize="10" guides="1" tooltips="1" connect="1" arrows="1" fold="1" page="1" pageScale="1" pageWidth="827" pageHeight="1169" math="0" shadow="0">
      <root>
        <mxCell id="0" />
        <mxCell id="1" parent="0" />
        <mxCell id="VVtHsUG8kDtVfbf5kp9U-1" value="" style="rounded=0;whiteSpace=wrap;html=1;" vertex="1" parent="1">
          <mxGeometry x="245" y="280" width="120" height="60" as="geometry" />
        </mxCell>
        <mxCell id="VVtHsUG8kDtVfbf5kp9U-3" value="" style="edgeStyle=orthogonalEdgeStyle;rounded=0;orthogonalLoop=1;jettySize=auto;html=1;" edge="1" parent="1" source="VVtHsUG8kDtVfbf5kp9U-2" target="VVtHsUG8kDtVfbf5kp9U-1">
          <mxGeometry relative="1" as="geometry" />
        </mxCell>
        <mxCell id="VVtHsUG8kDtVfbf5kp9U-4" value="" style="edgeStyle=orthogonalEdgeStyle;rounded=0;orthogonalLoop=1;jettySize=auto;html=1;" edge="1" parent="1" source="VVtHsUG8kDtVfbf5kp9U-2" target="VVtHsUG8kDtVfbf5kp9U-1">
          <mxGeometry relative="1" as="geometry" />
        </mxCell>
        <mxCell id="VVtHsUG8kDtVfbf5kp9U-5" value="" style="edgeStyle=orthogonalEdgeStyle;rounded=0;orthogonalLoop=1;jettySize=auto;html=1;" edge="1" parent="1" source="VVtHsUG8kDtVfbf5kp9U-2" target="VVtHsUG8kDtVfbf5kp9U-1">
          <mxGeometry relative="1" as="geometry" />
        </mxCell>
        <mxCell id="VVtHsUG8kDtVfbf5kp9U-6" value="" style="edgeStyle=orthogonalEdgeStyle;rounded=0;orthogonalLoop=1;jettySize=auto;html=1;" edge="1" parent="1" source="VVtHsUG8kDtVfbf5kp9U-2" target="VVtHsUG8kDtVfbf5kp9U-1">
          <mxGeometry relative="1" as="geometry" />
        </mxCell>
        <mxCell id="VVtHsUG8kDtVfbf5kp9U-2" value="User" style="shape=umlActor;verticalLabelPosition=bottom;verticalAlign=top;html=1;outlineConnect=0;" vertex="1" parent="1">
          <mxGeometry x="160" y="280" width="30" height="60" as="geometry" />
        </mxCell>
      </root>
    </mxGraphModel>
  </diagram>
</mxfile>
